# Blender 3.3.1
# www.blender.org
mtllib ship 1.mtl
o Cube
v -1.246298 -0.575194 8.219238
v -1.246298 0.575194 8.219238
v 0.000000 0.000000 -11.009988
v 1.246298 -0.575194 8.219238
v 1.246298 0.575194 8.219238
v -1.769575 -1.000000 -5.479492
v -2.104441 -1.000000 -2.739745
v -2.104196 -1.000000 0.000000
v -2.359551 -1.000000 2.739746
v -2.237691 -1.000000 5.479492
v -2.237691 1.000000 5.479492
v -2.359551 1.000000 2.739746
v -2.104196 1.000000 -0.000000
v -2.104441 1.000000 -2.739746
v -1.769575 1.000000 -5.479492
v 2.237691 -1.000000 5.479492
v 2.359551 -1.000000 2.739746
v 2.104196 -1.000000 -0.000000
v 2.104441 -1.000000 -2.739746
v 1.769575 -1.000000 -5.479492
v 1.769575 1.000000 -5.479492
v 2.104441 1.000000 -2.739745
v 2.104196 1.000000 0.000000
v 2.359551 1.000000 2.739746
v 2.237691 1.000000 5.479492
v -0.758515 -0.428642 -7.952454
v -0.758515 0.428642 -7.952454
v 0.758515 0.428642 -7.952454
v 0.758515 -0.428642 -7.952454
v 8.861238 0.000000 7.000451
v 8.983099 0.000000 5.292727
v 4.375918 0.000000 -0.145654
v 4.375918 0.000000 -0.145654
v 8.983099 0.000000 5.292728
v 8.861238 0.000000 7.000452
v 2.348999 0.297796 5.477045
v 2.470860 0.297796 2.737299
v 2.142372 -0.297796 -0.002448
v 2.470860 -0.297796 2.737298
v 2.142372 0.297796 -0.002448
v 2.348999 -0.297796 5.477044
v -0.968654 -0.575194 8.219238
v 0.968654 -0.575194 8.219238
v 0.000000 0.575194 8.219238
v 0.000000 0.575194 8.219238
v -1.375358 1.000000 -5.479492
v 1.375358 1.000000 -5.479492
v -1.635624 1.000000 -2.739746
v 1.635625 1.000000 -2.739746
v -1.635434 1.000000 -0.000000
v 1.635434 1.000000 0.000000
v 0.000000 1.000000 2.739746
v 0.000000 1.000000 2.739746
v -0.661214 1.000000 5.479492
v 0.661214 1.000000 5.479492
v 1.375358 -1.000000 -5.479492
v -1.375358 -1.000000 -5.479492
v 1.635624 -1.000000 -2.739746
v -1.635625 -1.000000 -2.739746
v 1.635434 -1.000000 -0.000000
v -1.635434 -1.000000 0.000000
v 1.833902 -1.000000 2.739746
v -1.833903 -1.000000 2.739746
v 1.739189 -1.000000 5.479492
v -1.739190 -1.000000 5.479492
v 0.589536 -0.428642 -7.952454
v -0.589536 -0.428642 -7.952454
v -0.589536 0.428642 -7.952454
v 0.589536 0.428642 -7.952454
v 0.000000 4.437685 6.846739
v -0.685315 1.887583 -5.483601
v 0.685315 1.887583 -5.483601
v -0.815000 1.957510 -2.743855
v 0.815000 1.957510 -2.743855
v -0.814905 1.000000 -0.004109
v 0.814905 1.000000 -0.004109
v 0.000000 1.000000 2.735637
v 0.000000 1.000000 2.735638
v 0.000000 4.437685 5.475383
v 0.000000 0.428642 -7.956563
v 1.246298 -0.575194 8.219238
v 1.246298 0.575194 8.219238
v -1.246298 -0.575194 8.219238
v -1.246298 0.575194 8.219238
v 1.769575 -1.000000 -5.479492
v 2.104441 -1.000000 -2.739745
v 2.104196 -1.000000 0.000000
v 2.359551 -1.000000 2.739746
v 2.237691 -1.000000 5.479492
v 2.237691 1.000000 5.479492
v 2.359551 1.000000 2.739746
v 2.104196 1.000000 -0.000000
v 2.104441 1.000000 -2.739746
v 1.769575 1.000000 -5.479492
v -2.237691 -1.000000 5.479492
v -2.359551 -1.000000 2.739746
v -2.104196 -1.000000 -0.000000
v -2.104441 -1.000000 -2.739746
v -1.769575 -1.000000 -5.479492
v -1.769575 1.000000 -5.479492
v -2.104441 1.000000 -2.739745
v -2.104196 1.000000 0.000000
v -2.359551 1.000000 2.739746
v -2.237691 1.000000 5.479492
v 0.758515 -0.428642 -7.952454
v 0.758515 0.428642 -7.952454
v -0.758515 0.428642 -7.952454
v -0.758515 -0.428642 -7.952454
v -8.861238 0.000000 7.000451
v -8.983099 0.000000 5.292727
v -4.375918 0.000000 -0.145654
v -4.375918 0.000000 -0.145654
v -8.983099 0.000000 5.292728
v -8.861238 0.000000 7.000452
v -2.348999 0.297796 5.477045
v -2.470860 0.297796 2.737299
v -2.142372 -0.297796 -0.002448
v -2.470860 -0.297796 2.737298
v -2.142372 0.297796 -0.002448
v -2.348999 -0.297796 5.477044
v 0.968654 -0.575194 8.219238
v -0.968654 -0.575194 8.219238
v 1.375358 1.000000 -5.479492
v -1.375358 1.000000 -5.479492
v 1.635624 1.000000 -2.739746
v -1.635625 1.000000 -2.739746
v 1.635434 1.000000 -0.000000
v -1.635434 1.000000 0.000000
v 0.661214 1.000000 5.479492
v -0.661214 1.000000 5.479492
v -1.375358 -1.000000 -5.479492
v 1.375358 -1.000000 -5.479492
v -1.635624 -1.000000 -2.739746
v 1.635625 -1.000000 -2.739746
v -1.635434 -1.000000 -0.000000
v 1.635434 -1.000000 0.000000
v -1.833902 -1.000000 2.739746
v 1.833903 -1.000000 2.739746
v -1.739189 -1.000000 5.479492
v 1.739190 -1.000000 5.479492
v -0.589536 -0.428642 -7.952454
v 0.589536 -0.428642 -7.952454
v 0.589536 0.428642 -7.952454
v -0.589536 0.428642 -7.952454
v 0.685315 1.887583 -5.483601
v -0.685315 1.887583 -5.483601
v 0.815000 1.957510 -2.743855
v -0.815000 1.957510 -2.743855
v 0.814905 1.000000 -0.004109
v -0.814905 1.000000 -0.004109
vn -0.0000 0.9743 -0.2251
vn 0.9403 -0.0000 0.3403
vn -0.0000 -0.0000 1.0000
vn -0.0000 -0.9882 0.1532
vn -0.0000 0.9882 0.1532
vn -0.0000 1.0000 -0.0000
vn 0.9256 -0.0000 -0.3784
vn -0.0000 -1.0000 -0.0000
vn -0.9256 -0.0000 -0.3784
vn 0.9926 -0.0000 -0.1213
vn 1.0000 -0.0000 0.0001
vn 0.0813 -0.9955 -0.0491
vn 0.0449 0.9990 0.0025
vn -0.9403 -0.0000 0.3403
vn -0.9990 -0.0000 0.0444
vn -0.9957 -0.0000 -0.0928
vn -1.0000 -0.0000 0.0001
vn -0.9926 -0.0000 -0.1213
vn -0.0000 0.9903 -0.1388
vn -0.0000 -0.9743 -0.2251
vn -0.0000 -0.9903 -0.1388
vn 0.9706 -0.0000 -0.2408
vn -0.9706 -0.0000 -0.2408
vn 0.0813 0.9955 -0.0491
vn -0.2278 -0.0000 0.9737
vn 0.0449 -0.9990 0.0025
vn -0.0640 -0.0000 -0.9980
vn 0.9867 -0.1563 0.0439
vn 0.0220 -0.0000 0.9998
vn 0.9888 0.1056 -0.1054
vn 0.9867 0.1563 0.0439
vn 0.9888 -0.1056 -0.1054
vn -0.9781 0.1206 0.1698
vn -0.9557 0.1833 -0.2303
vn 0.9781 0.1206 0.1698
vn -0.0000 0.9440 0.3299
vn -0.0000 0.9997 -0.0255
vn -0.0000 0.8613 -0.5081
vn 0.4977 0.8544 0.1493
vn -0.4977 0.8544 0.1493
vn 0.7723 0.6321 -0.0630
vn 0.5103 0.7315 -0.4521
vn -0.7723 0.6321 -0.0630
vn 0.9557 0.1833 -0.2303
vn -0.5103 0.7315 -0.4521
vn -0.0813 -0.9955 -0.0491
vn -0.0449 0.9990 0.0025
vn 0.9990 -0.0000 0.0444
vn 0.9957 -0.0000 -0.0928
vn -0.0813 0.9955 -0.0491
vn 0.2278 -0.0000 0.9737
vn -0.0449 -0.9990 0.0025
vn 0.0640 -0.0000 -0.9980
vn -0.9867 -0.1563 0.0439
vn -0.0220 -0.0000 0.9998
vn -0.9888 0.1056 -0.1054
vn -0.9867 0.1563 0.0439
vn -0.9888 -0.1056 -0.1054
vt 0.375000 1.000000
vt 0.375000 0.000000
vt 0.125000 0.750000
vt 0.625000 1.000000
vt 0.875000 0.750000
vt 0.625000 0.000000
vt 0.875000 0.517860
vt 0.375000 0.517860
vt 0.625000 0.517860
vt 0.375000 0.232140
vt 0.375000 0.750000
vt 0.625000 0.750000
vt 0.375000 0.208333
vt 0.125000 0.541667
vt 0.375000 0.166667
vt 0.125000 0.583333
vt 0.375000 0.125000
vt 0.125000 0.625000
vt 0.375000 0.083333
vt 0.125000 0.666667
vt 0.375000 0.041667
vt 0.125000 0.708333
vt 0.875000 0.708333
vt 0.625000 0.041667
vt 0.875000 0.666667
vt 0.625000 0.083333
vt 0.875000 0.625000
vt 0.625000 0.125000
vt 0.875000 0.583333
vt 0.625000 0.166667
vt 0.875000 0.541667
vt 0.625000 0.208333
vt 0.375000 0.708333
vt 0.375000 0.666667
vt 0.375000 0.625000
vt 0.375000 0.583333
vt 0.375000 0.541667
vt 0.625000 0.541667
vt 0.625000 0.583333
vt 0.625000 0.625000
vt 0.625000 0.666667
vt 0.625000 0.708333
vt 0.375000 0.232140
vt 0.267839 0.517860
vt 0.875000 0.517860
vt 0.482161 0.232140
vt 0.625000 0.517860
vt 0.767839 0.517860
vt 0.375000 0.517860
vt 0.517839 0.517860
vt 0.375000 0.708333
vt 0.375000 0.666667
vt 0.375000 0.625000
vt 0.625000 0.625000
vt 0.625000 0.666667
vt 0.625000 0.708333
vt 0.625000 0.708333
vt 0.625000 0.666667
vt 0.375000 0.625000
vt 0.375000 0.666667
vt 0.625000 0.625000
vt 0.375000 0.708333
vt 0.208333 0.750000
vt 0.375000 0.916667
vt 0.291667 0.750000
vt 0.375000 0.833333
vt 0.625000 0.833333
vt 0.708333 0.750000
vt 0.791667 0.750000
vt 0.625000 0.916667
vt 0.791667 0.541667
vt 0.708333 0.541667
vt 0.791667 0.583333
vt 0.708333 0.583333
vt 0.791667 0.625000
vt 0.708333 0.625000
vt 0.791667 0.666667
vt 0.708333 0.666667
vt 0.791667 0.708333
vt 0.708333 0.708333
vt 0.291667 0.541667
vt 0.208333 0.541667
vt 0.291667 0.583333
vt 0.208333 0.583333
vt 0.291667 0.625000
vt 0.208333 0.625000
vt 0.291667 0.666667
vt 0.208333 0.666667
vt 0.291667 0.708333
vt 0.208333 0.708333
vt 0.339280 0.517860
vt 0.303560 0.517860
vt 0.839280 0.517860
vt 0.803560 0.517860
vt 0.625000 0.916667
vt 0.791667 0.750000
vt 0.708333 0.750000
vt 0.791667 0.541667
vt 0.708333 0.541667
vt 0.791667 0.583333
vt 0.708333 0.583333
vt 0.791667 0.625000
vt 0.708333 0.625000
vt 0.791667 0.666667
vt 0.708333 0.666667
vt 0.791667 0.708333
vt 0.708333 0.708333
vt 0.803560 0.517860
vt 0.839280 0.517860
vt 0.375000 1.000000
vt 0.375000 0.000000
vt 0.125000 0.750000
vt 0.625000 1.000000
vt 0.875000 0.750000
vt 0.625000 0.000000
vt 0.375000 0.750000
vt 0.625000 0.750000
vt 0.375000 0.208333
vt 0.125000 0.541667
vt 0.375000 0.166667
vt 0.125000 0.583333
vt 0.375000 0.125000
vt 0.125000 0.625000
vt 0.375000 0.083333
vt 0.125000 0.666667
vt 0.375000 0.041667
vt 0.125000 0.708333
vt 0.875000 0.708333
vt 0.625000 0.041667
vt 0.875000 0.666667
vt 0.625000 0.083333
vt 0.875000 0.625000
vt 0.625000 0.125000
vt 0.875000 0.583333
vt 0.625000 0.166667
vt 0.875000 0.541667
vt 0.625000 0.208333
vt 0.375000 0.708333
vt 0.375000 0.666667
vt 0.375000 0.625000
vt 0.375000 0.583333
vt 0.375000 0.541667
vt 0.625000 0.541667
vt 0.625000 0.583333
vt 0.625000 0.625000
vt 0.625000 0.666667
vt 0.625000 0.708333
vt 0.375000 0.232140
vt 0.267839 0.517860
vt 0.875000 0.517860
vt 0.482161 0.232140
vt 0.625000 0.517860
vt 0.767839 0.517860
vt 0.375000 0.517860
vt 0.517839 0.517860
vt 0.375000 0.708333
vt 0.375000 0.666667
vt 0.375000 0.625000
vt 0.625000 0.625000
vt 0.625000 0.666667
vt 0.625000 0.708333
vt 0.625000 0.708333
vt 0.625000 0.666667
vt 0.375000 0.625000
vt 0.375000 0.666667
vt 0.625000 0.625000
vt 0.375000 0.708333
vt 0.208333 0.750000
vt 0.375000 0.916667
vt 0.291667 0.750000
vt 0.375000 0.833333
vt 0.791667 0.541667
vt 0.708333 0.541667
vt 0.791667 0.583333
vt 0.708333 0.583333
vt 0.791667 0.625000
vt 0.708333 0.625000
vt 0.791667 0.708333
vt 0.708333 0.708333
vt 0.291667 0.541667
vt 0.208333 0.541667
vt 0.291667 0.583333
vt 0.208333 0.583333
vt 0.291667 0.625000
vt 0.208333 0.625000
vt 0.291667 0.666667
vt 0.208333 0.666667
vt 0.291667 0.708333
vt 0.208333 0.708333
vt 0.339280 0.517860
vt 0.303560 0.517860
vt 0.839280 0.517860
vt 0.803560 0.517860
vt 0.791667 0.541667
vt 0.708333 0.541667
vt 0.791667 0.583333
vt 0.708333 0.583333
vt 0.791667 0.625000
vt 0.708333 0.625000
s 0
usemtl rot
f 68/93/1 27/45/1 15/31/1 46/71/1
f 64/89/4 16/33/4 4/11/4 43/65/4
f 54/79/5 11/23/5 2/5/5 45/69/5
f 46/71/6 15/31/6 14/29/6 48/73/6
f 48/73/6 14/29/6 13/27/6 50/75/6
f 50/75/6 13/27/6 12/25/6 52/77/6
f 52/77/6 12/25/6 11/23/6 54/79/6
f 56/81/8 20/37/8 19/36/8 58/83/8
f 58/83/8 19/36/8 18/35/8 60/85/8
f 60/85/8 18/35/8 17/34/8 62/87/8
f 62/87/8 17/34/8 16/33/8 64/89/8
f 27/45/19 68/93/19 69/94/19 28/48/19 3/7/19
f 66/91/20 29/49/20 20/37/20 56/81/20
f 29/49/21 66/91/21 67/92/21 26/44/21 3/8/21
f 28/47/22 29/50/22 3/9/22
f 26/43/23 27/46/23 3/10/23
f 26/44/20 67/92/20 57/82/20 6/14/20
f 67/92/20 66/91/20 56/81/20 57/82/20
f 9/20/8 63/88/8 65/90/8 10/22/8
f 63/88/8 62/87/8 64/89/8 65/90/8
f 8/18/8 61/86/8 63/88/8 9/20/8
f 7/16/8 59/84/8 61/86/8 8/18/8
f 6/14/8 57/82/8 59/84/8 7/16/8
f 57/82/8 56/81/8 58/83/8 59/84/8
f 24/41/6 53/78/6 55/80/6 25/42/6
f 23/40/6 51/76/6 53/78/6 24/41/6
f 22/39/6 49/74/6 51/76/6 23/40/6
f 45/70/6 44/67/6 70/95/6
f 21/38/6 47/72/6 49/74/6 22/39/6
f 54/79/33 45/69/33 70/96/33 79/106/33
f 25/42/5 55/80/5 44/68/5 5/12/5
f 52/77/34 54/79/34 79/106/34 77/104/34
f 10/22/4 65/90/4 42/63/4 1/3/4
f 65/90/4 64/89/4 43/65/4 42/63/4
f 28/48/1 69/94/1 47/72/1 21/38/1
f 44/68/35 55/80/35 79/107/35 70/97/35
f 78/105/6 77/104/6 79/107/6
f 69/94/8 68/93/8 80/108/8
f 55/80/44 53/78/44 78/105/44 79/107/44
f 50/75/6 52/77/6 77/104/6 78/105/6 53/78/6 51/76/6 76/103/6 75/102/6
f 143/192/1 123/172/1 94/136/1 106/150/1
f 139/188/4 122/170/4 83/116/4 95/138/4
f 129/178/5 45/69/5 82/114/5 90/128/5
f 123/172/6 125/174/6 93/134/6 94/136/6
f 125/174/6 127/176/6 92/132/6 93/134/6
f 127/176/6 52/77/6 91/130/6 92/132/6
f 52/77/6 129/178/6 90/128/6 91/130/6
f 131/180/8 133/182/8 98/141/8 99/142/8
f 133/182/8 135/184/8 97/140/8 98/141/8
f 135/184/8 137/186/8 96/139/8 97/140/8
f 137/186/8 139/188/8 95/138/8 96/139/8
f 106/150/19 3/7/19 107/153/19 144/193/19 143/192/19
f 141/190/20 131/180/20 99/142/20 108/154/20
f 108/154/21 3/8/21 105/149/21 142/191/21 141/190/21
f 107/152/23 3/9/23 108/155/23
f 105/148/22 3/10/22 106/151/22
f 105/149/20 85/119/20 132/181/20 142/191/20
f 142/191/20 132/181/20 131/180/20 141/190/20
f 88/125/8 89/127/8 140/189/8 138/187/8
f 138/187/8 140/189/8 139/188/8 137/186/8
f 87/123/8 88/125/8 138/187/8 136/185/8
f 86/121/8 87/123/8 136/185/8 134/183/8
f 134/183/8 136/185/8 135/184/8 133/182/8
f 85/119/8 86/121/8 134/183/8 132/181/8
f 132/181/8 134/183/8 133/182/8 131/180/8
f 103/146/6 104/147/6 130/179/6 53/78/6
f 102/145/6 103/146/6 53/78/6 128/177/6
f 101/144/6 102/145/6 128/177/6 126/175/6
f 100/143/6 101/144/6 126/175/6 124/173/6
f 129/178/35 79/106/35 70/96/35 45/69/35
f 104/147/5 84/117/5 44/68/5 130/179/5
f 52/77/44 77/104/44 79/106/44 129/178/44
f 89/127/4 81/112/4 121/168/4 140/189/4
f 140/189/4 121/168/4 122/170/4 139/188/4
f 107/153/1 100/143/1 124/173/1 144/193/1
f 44/68/33 70/97/33 79/107/33 130/179/33
f 144/193/8 80/108/8 143/192/8
f 130/179/34 79/107/34 78/105/34 53/78/34
f 127/176/6 149/198/6 150/199/6 128/177/6 53/78/6 78/105/6 77/104/6 52/77/6
usemtl grau
f 16/33/2 25/42/2 5/12/2 4/11/2
f 42/64/3 45/70/3 2/4/3 1/1/3
f 29/50/7 28/47/7 21/38/7 20/37/7
f 6/13/9 15/32/9 27/46/9 26/43/9
f 20/37/10 21/38/10 22/39/10 19/36/10
f 19/36/11 22/39/11 23/40/11 18/35/11
f 39/60/12 38/59/12 32/53/12 31/52/12
f 37/58/13 36/57/13 35/56/13 34/55/13
f 1/2/14 2/6/14 11/24/14 10/21/14
f 10/21/15 11/24/15 12/26/15 9/19/15
f 9/19/16 12/26/16 13/28/16 8/17/16
f 8/17/17 13/28/17 14/30/17 7/15/17
f 7/15/18 14/30/18 15/32/18 6/13/18
f 32/53/6 33/54/6 34/55/6 31/52/6
f 40/61/24 37/58/24 34/55/24 33/54/24
f 36/57/25 41/62/25 30/51/25 35/56/25
f 41/62/26 39/60/26 31/52/26 30/51/26
f 38/59/27 40/61/27 33/54/27 32/53/27
f 18/35/27 23/40/27 40/61/27 38/59/27
f 16/33/28 17/34/28 39/60/28 41/62/28
f 25/42/29 16/33/29 41/62/29 36/57/29
f 23/40/30 24/41/30 37/58/30 40/61/30
f 24/41/31 25/42/31 36/57/31 37/58/31
f 17/34/32 18/35/32 38/59/32 39/60/32
f 4/11/3 5/12/3 44/67/3 43/66/3
f 43/66/3 44/67/3 45/70/3 42/64/3
f 95/138/14 83/116/14 84/117/14 104/147/14
f 121/169/3 81/110/3 82/113/3 45/70/3
f 108/155/9 99/142/9 100/143/9 107/152/9
f 85/118/7 105/148/7 106/151/7 94/137/7
f 99/142/18 98/141/18 101/144/18 100/143/18
f 98/141/17 97/140/17 102/145/17 101/144/17
f 118/165/46 110/157/46 111/158/46 117/164/46
f 116/163/47 113/160/47 114/161/47 115/162/47
f 81/111/2 89/126/2 90/129/2 82/115/2
f 89/126/48 88/124/48 91/131/48 90/129/48
f 88/124/49 87/122/49 92/133/49 91/131/49
f 87/122/11 86/120/11 93/135/11 92/133/11
f 86/120/10 85/118/10 94/137/10 93/135/10
f 111/158/6 110/157/6 113/160/6 112/159/6
f 110/157/8 109/156/8 114/161/8 113/160/8
f 119/166/50 112/159/50 113/160/50 116/163/50
f 115/162/51 114/161/51 109/156/51 120/167/51
f 120/167/52 109/156/52 110/157/52 118/165/52
f 117/164/53 111/158/53 112/159/53 119/166/53
f 97/140/53 117/164/53 119/166/53 102/145/53
f 95/138/54 120/167/54 118/165/54 96/139/54
f 104/147/55 115/162/55 120/167/55 95/138/55
f 102/145/56 119/166/56 116/163/56 103/146/56
f 103/146/57 116/163/57 115/162/57 104/147/57
f 96/139/58 118/165/58 117/164/58 97/140/58
f 83/116/3 122/171/3 44/67/3 84/117/3
f 122/171/3 121/169/3 45/70/3 44/67/3
usemtl blau
f 61/86/8 60/85/8 62/87/8 63/88/8
f 59/84/8 58/83/8 60/85/8 61/86/8
f 74/101/36 73/100/36 75/102/36 76/103/36
f 72/99/37 71/98/37 73/100/37 74/101/37
f 80/109/38 71/98/38 72/99/38
f 51/76/39 49/74/39 74/101/39 76/103/39
f 48/73/40 50/75/40 75/102/40 73/100/40
f 49/74/41 47/72/41 72/99/41 74/101/41
f 47/72/42 69/94/42 80/108/42 72/99/42
f 46/71/43 48/73/43 73/100/43 71/98/43
f 68/93/45 46/71/45 71/98/45 80/109/45
f 136/185/8 138/187/8 137/186/8 135/184/8
f 148/197/36 150/199/36 149/198/36 147/196/36
f 146/195/37 148/197/37 147/196/37 145/194/37
f 80/109/38 146/195/38 145/194/38
f 128/177/40 150/199/40 148/197/40 126/175/40
f 125/174/39 147/196/39 149/198/39 127/176/39
f 126/175/43 148/197/43 146/195/43 124/173/43
f 124/173/45 146/195/45 80/108/45 144/193/45
f 123/172/41 145/194/41 147/196/41 125/174/41
f 143/192/42 80/109/42 145/194/42 123/172/42
o Cube.001
v 8.861238 0.000000 7.000451
v 8.983099 0.000000 5.292727
v 8.983099 0.000000 5.292728
v 8.861238 0.000000 7.000452
v 9.006301 0.750143 5.967288
v 8.989271 0.750143 6.335730
v 9.158902 0.000000 5.305274
v 9.037042 0.000000 7.012997
v 9.030869 0.750143 5.969995
v 9.013839 0.750143 6.338437
v -8.861238 0.000000 7.000451
v -8.983099 0.000000 5.292727
v -8.983099 0.000000 5.292728
v -8.861238 0.000000 7.000452
v -9.006301 0.750143 5.967288
v -8.989271 0.750143 6.335730
v -9.158902 0.000000 5.305274
v -9.037042 0.000000 7.012997
v -9.030869 0.750143 5.969995
v -9.013839 0.750143 6.338437
v 9.006301 -0.750143 5.967288
v 8.989271 -0.750143 6.335730
v 9.030869 -0.750143 5.969995
v 9.013839 -0.750143 6.338437
v -9.006301 -0.750143 5.967288
v -8.989271 -0.750143 6.335730
v -9.030869 -0.750143 5.969995
v -9.013839 -0.750143 6.338437
vn -0.0000 -1.0000 -0.0000
vn -0.0000 1.0000 -0.0000
vn 0.9927 0.1005 0.0664
vn -0.0565 0.6671 0.7428
vn 0.0565 0.6671 -0.7428
vn -0.9927 0.1005 -0.0664
vn -0.9927 0.1005 0.0664
vn 0.0565 0.6671 0.7428
vn -0.0565 0.6671 -0.7428
vn 0.9927 0.1005 -0.0664
vn 0.9927 -0.1005 0.0664
vn -0.0565 -0.6671 0.7428
vn 0.0565 -0.6671 -0.7428
vn -0.9927 -0.1005 -0.0664
vn -0.9927 -0.1005 0.0664
vn 0.0565 -0.6671 0.7428
vn -0.0565 -0.6671 -0.7428
vn 0.9927 -0.1005 -0.0664
vt 0.375000 0.708333
vt 0.375000 0.666667
vt 0.625000 0.666667
vt 0.000000 0.000000
vt 0.625000 0.708333
vt 0.000000 0.000000
vt 0.000000 0.000000
vt 0.000000 0.000000
vt 0.625000 0.666667
vt 0.000000 0.000000
vt 0.625000 0.708333
vt 0.000000 0.000000
vt 0.625000 0.666667
vt 0.000000 0.000000
vt 0.625000 0.708333
vt 0.000000 0.000000
vt 0.375000 0.708333
vt 0.375000 0.666667
vt 0.625000 0.666667
vt 0.000000 0.000000
vt 0.625000 0.708333
vt 0.000000 0.000000
vt 0.000000 0.000000
vt 0.000000 0.000000
vt 0.625000 0.666667
vt 0.000000 0.000000
vt 0.625000 0.708333
vt 0.000000 0.000000
vt 0.625000 0.666667
vt 0.000000 0.000000
vt 0.625000 0.708333
vt 0.000000 0.000000
vt 0.000000 0.000000
vt 0.000000 0.000000
vt 0.625000 0.666667
vt 0.000000 0.000000
vt 0.625000 0.708333
vt 0.000000 0.000000
vt 0.000000 0.000000
vt 0.000000 0.000000
vt 0.625000 0.666667
vt 0.000000 0.000000
vt 0.625000 0.708333
vt 0.000000 0.000000
s 0
usemtl rot
f 152/201/59 153/202/59 154/204/59 151/200/59
f 155/206/60 156/207/60 160/215/60 159/213/60
f 158/210/61 157/208/61 159/212/61 160/214/61
f 154/204/59 153/202/59 157/208/59 158/210/59
f 156/207/62 154/205/62 158/211/62 160/215/62
f 153/203/63 155/206/63 159/213/63 157/209/63
f 155/206/64 153/203/64 154/205/64 156/207/64
f 162/217/59 161/216/59 164/220/59 163/218/59
f 165/222/60 169/229/60 170/231/60 166/223/60
f 168/226/65 170/230/65 169/228/65 167/224/65
f 164/220/59 168/226/59 167/224/59 163/218/59
f 166/223/66 170/231/66 168/227/66 164/221/66
f 163/219/67 167/225/67 169/229/67 165/222/67
f 165/222/68 166/223/68 164/221/68 163/219/68
f 171/232/59 173/235/59 174/237/59 172/233/59
f 158/210/69 174/236/69 173/234/69 157/208/69
f 172/233/70 174/237/70 158/211/70 154/205/70
f 153/203/71 157/209/71 173/235/71 171/232/71
f 171/232/72 172/233/72 154/205/72 153/203/72
f 175/238/59 176/239/59 178/243/59 177/241/59
f 168/226/73 167/224/73 177/240/73 178/242/73
f 176/239/74 164/221/74 168/227/74 178/243/74
f 163/219/75 175/238/75 177/241/75 167/225/75
f 175/238/76 163/219/76 164/221/76 176/239/76
